<?xml version="1.0" encoding="UTF-8"?>
<svg version="1.1" xmlns="http://www.w3.org/2000/svg" width="1024" height="1024">
<path d="M0 0 C337.92 0 675.84 0 1024 0 C1024 337.92 1024 675.84 1024 1024 C686.08 1024 348.16 1024 0 1024 C0 686.08 0 348.16 0 0 Z " fill="#FEFEFE" transform="translate(0,0)"/>
<path d="M0 0 C0.99884297 -0.00397774 0.99884297 -0.00397774 2.01786458 -0.00803584 C4.25313877 -0.01570606 6.48835781 -0.01628714 8.72364426 -0.01688576 C10.34101617 -0.02090191 11.95838708 -0.02534039 13.57575679 -0.03016531 C18.02385897 -0.04212013 22.47195031 -0.04777676 26.9200654 -0.05234647 C31.71653738 -0.05830689 36.51299643 -0.06991582 41.30945969 -0.08063698 C52.89672909 -0.10515375 64.48400278 -0.11978855 76.07129014 -0.13269705 C79.3455474 -0.13640998 82.61980424 -0.14038314 85.89406109 -0.14444971 C106.23687505 -0.16969094 126.5796897 -0.19173907 146.92251587 -0.20417786 C151.63411842 -0.20710745 156.34572095 -0.21006913 161.05732346 -0.21308327 C162.22833889 -0.21382932 163.39935433 -0.21457537 164.60585508 -0.21534403 C183.56042066 -0.22798792 202.51489223 -0.26119815 221.46941391 -0.3028851 C240.94089858 -0.34535693 260.41233521 -0.36887909 279.88386607 -0.37409842 C290.81171651 -0.37750694 301.73942013 -0.38919588 312.66722488 -0.42220116 C321.97751037 -0.45027519 331.28761894 -0.46116887 340.59794345 -0.4500057 C345.34340011 -0.44483754 350.0884867 -0.44758518 354.83388901 -0.47247124 C359.1894478 -0.49512079 363.54437407 -0.49410353 367.89994511 -0.47526737 C369.46469951 -0.47248914 371.02949828 -0.47794273 372.59418193 -0.4930803 C392.22156267 -0.67115379 410.69699785 5.04178993 425.07587814 18.91045189 C425.80290939 19.64521751 426.52994064 20.37998314 427.27900314 21.13701439 C428.21486252 22.02260033 428.21486252 22.02260033 429.16962814 22.92607689 C433.15597368 27.00220498 435.84931502 31.61840725 438.46650314 36.63701439 C438.78764084 37.23457542 439.10877853 37.83213646 439.43964767 38.4478054 C446.14478072 51.98801593 446.86995398 66.08057083 446.82490158 80.85381126 C446.83365785 82.77733754 446.84415069 84.70085656 446.85622787 86.62436485 C446.88385713 91.79479915 446.88749771 96.96499307 446.88650799 102.13549042 C446.88965711 107.55804894 446.91531656 112.98050233 446.93848801 118.4030056 C446.97889933 128.64831078 446.99935362 138.89355254 447.0124619 149.13892508 C447.02838254 160.81264935 447.06681929 172.48626649 447.10705519 184.15992832 C447.18925049 208.15225429 447.24346959 232.1445771 447.27900314 256.13701439 C448.69988813 254.57207219 450.11876301 253.0053048 451.53681564 251.43779564 C452.32717209 250.56550316 453.11752853 249.69321068 453.93183517 248.79448509 C456.7830853 245.56629104 459.44986919 242.21800708 462.11494064 238.83623314 C464.61336859 235.7199629 467.18854022 232.67678009 469.77900314 229.63701439 C473.71220619 225.01624014 477.5564575 220.33924734 481.32978439 215.58623314 C487.15184204 208.27074187 493.13899429 201.09778142 499.19233322 193.97368431 C502.8372567 189.6774955 506.4066594 185.32359784 509.96259689 180.95342064 C512.55687868 177.79915897 515.19520931 174.68511003 517.84150314 171.57451439 C521.66049717 167.08023435 525.40055778 162.53693932 529.06415939 157.91435814 C531.87999982 154.38338363 534.73693436 150.8866975 537.59150314 147.38701439 C541.71632016 142.32910424 545.77897001 137.2314847 549.77900314 132.07451439 C554.21490933 126.36864462 558.88841417 120.90132224 563.64960861 115.46538353 C567.30651036 111.2842712 570.82176667 107.02062196 574.25947189 102.65654564 C576.69081228 99.62324864 579.19762786 96.66018419 581.71650314 93.69951439 C586.64385587 87.90356859 591.48061356 82.0403959 596.27900314 76.13701439 C597.41677133 74.74618267 598.55481182 73.35557369 599.69306564 71.96513939 C600.88847721 70.50167864 602.08378997 69.03813717 603.27900314 67.57451439 C603.85569748 66.87092796 604.43239182 66.16734154 605.02656174 65.44243431 C605.5636174 64.78348167 606.10067307 64.12452904 606.65400314 63.44560814 C607.13611252 62.85578148 607.61822189 62.26595482 608.11494064 61.65825462 C609.3627055 60.1265949 609.3627055 60.1265949 610.27900314 58.13701439 C639.97900314 58.13701439 669.67900314 58.13701439 700.27900314 58.13701439 C699.66085394 63.08220802 699.04597918 67.62552777 697.97895432 72.43388939 C697.58594383 74.21565826 697.58594383 74.21565826 697.18499374 76.03342247 C696.90019653 77.3051078 696.61539932 78.57679314 696.32197189 79.88701439 C696.02023779 81.24462408 695.71869301 82.60227586 695.41732407 83.95996666 C694.60842792 87.59679259 693.79361513 91.23226593 692.9765892 94.86727333 C692.46270863 97.1538989 691.94996547 99.4407775 691.43732834 101.72768211 C686.92396578 121.84288546 682.23470076 141.89824277 677.14789963 161.87724876 C676.66020167 163.79322644 676.17265768 165.7092433 675.68525314 167.62529564 C675.43385071 168.61345268 675.18244827 169.60160973 674.92342758 170.61971092 C670.72556467 187.1913858 666.72591865 203.81297738 662.68841171 220.42427254 C662.02992194 223.13323455 661.37112807 225.84212244 660.71223068 228.55098534 C658.23253275 238.74585447 655.7553916 248.94133974 653.27900314 259.13701439 C667.46900314 259.13701439 681.65900314 259.13701439 696.27900314 259.13701439 C695.59302864 263.93883593 694.82900943 268.34071562 693.67744064 273.01201439 C693.44137604 273.97041222 693.44137604 273.97041222 693.20054245 274.94817162 C692.689687 277.01231094 692.17249138 279.07478003 691.65400314 281.13701439 C691.39055099 282.19166893 691.39055099 282.19166893 691.12177658 283.26762962 C687.92523218 296.03205218 684.24250429 308.58592741 680.27900314 321.13701439 C666.08900314 321.13701439 651.89900314 321.13701439 637.27900314 321.13701439 C636.61900314 324.76701439 635.95900314 328.39701439 635.27900314 332.13701439 C634.83115725 334.22481339 634.36658227 336.30920584 633.87446213 338.38701439 C633.61757111 339.47764183 633.36068008 340.56826927 633.09600449 341.69194603 C632.82510498 342.82881859 632.55420547 343.96569115 632.27509689 345.13701439 C631.85007637 346.93416893 631.85007637 346.93416893 631.41646957 348.76762962 C630.82194804 351.2789358 630.22605806 353.78991837 629.62885666 356.30058861 C628.71273796 360.15284689 627.80119927 364.00616781 626.89033127 367.85967064 C626.31051961 370.30634839 625.7304507 372.75296518 625.15009689 375.19951439 C624.87717316 376.3525808 624.60424942 377.5056472 624.32305527 378.69365501 C624.06931641 379.75906517 623.81557755 380.82447533 623.55414963 381.92217064 C623.33145905 382.85939964 623.10876846 383.79662865 622.87932968 384.76225853 C622.42118826 386.57456227 621.87013244 388.36362651 621.27900314 390.13701439 C598.17900314 390.13701439 575.07900314 390.13701439 551.27900314 390.13701439 C551.90995927 385.08936536 552.5464827 380.52088659 553.67768478 375.62920189 C554.10386093 373.77295189 554.10386093 373.77295189 554.5386467 371.87920189 C554.98440048 369.96494408 554.98440048 369.96494408 555.43915939 368.01201439 C555.71336716 366.82092064 555.98757492 365.62982689 556.27009201 364.40263939 C557.28953381 359.97975673 558.31592589 355.55847838 559.34150314 351.13701439 C561.63087814 341.23701439 563.92025314 331.33701439 566.27900314 321.13701439 C526.67900314 321.13701439 487.07900314 321.13701439 446.27900314 321.13701439 C446.27900314 335.98701439 446.27900314 350.83701439 446.27900314 366.13701439 C442.79458105 382.39765084 442.79458105 382.39765084 439.52900314 388.44951439 C439.00403244 389.45594994 439.00403244 389.45594994 438.46845627 390.48271751 C435.60387245 395.83373937 432.3661544 400.63391412 428.27900314 405.13701439 C427.67572189 405.82021751 427.07244064 406.50342064 426.45087814 407.20732689 C414.54743886 419.93336157 396.890634 428.11191792 379.56566846 429.41666687 C375.43066668 429.524227 371.30520466 429.54255592 367.16930771 429.52469444 C365.57731433 429.52887573 363.98532393 429.53435757 362.39333898 429.54101425 C358.05253253 429.55538353 353.71191732 429.55125099 349.37110078 429.54384744 C344.67634671 429.53909681 339.9816329 429.55164235 335.28689194 429.56186485 C326.10240437 429.57902149 316.91798532 429.57989934 307.7334859 429.57465195 C300.26443712 429.57060297 292.79540852 429.57206244 285.3263607 429.57740021 C284.2614522 429.57814863 283.1965437 429.57889705 282.09936524 429.57966815 C279.93567488 429.58119971 277.77198452 429.58273805 275.60829417 429.58428312 C255.3378785 429.59799696 235.06750147 429.59257844 214.79708669 429.58109791 C196.27561894 429.57116794 177.75425112 429.58410413 159.23279878 429.6080321 C140.1893306 429.63244804 121.14590891 429.64202476 102.1024254 429.63537937 C91.42124132 429.63189254 80.74013406 429.63408372 70.05896187 429.6516304 C60.96586818 429.66638364 51.87290541 429.66694715 42.77981421 429.64955949 C38.14587497 429.64107258 33.51216928 429.63884314 28.87824249 429.65421104 C24.62611676 429.66813747 20.3744229 429.66319396 16.12232164 429.64397181 C14.59417308 429.64023569 13.06598926 429.64306385 11.53787234 429.65358346 C-9.84791657 429.790192 -29.83040762 423.65025294 -45.59599686 408.69951439 C-59.42484495 393.77801657 -65.21703403 375.89469792 -65.10194778 355.80972862 C-65.10662776 354.53301955 -65.11130773 353.25631048 -65.11612952 351.94091326 C-65.12853242 348.43607853 -65.12251873 344.93149214 -65.11317086 341.42665708 C-65.10633631 337.63178499 -65.11688321 333.83695331 -65.12511063 330.04208946 C-65.13840311 322.62358808 -65.13559043 315.2051781 -65.1268727 307.78667324 C-65.12007934 301.75447003 -65.11918656 295.72229231 -65.12244415 289.69008636 C-65.12290385 288.8293997 -65.12336355 287.96871304 -65.12383718 287.08194496 C-65.12479642 285.33312967 -65.12576906 283.58431439 -65.12675495 281.83549912 C-65.13529557 265.46332164 -65.12549534 249.09119469 -65.10935386 232.7190255 C-65.09594949 218.68897764 -65.09828232 204.65900426 -65.11211014 190.62895775 C-65.12818533 174.31117404 -65.13447424 157.99343451 -65.12527335 141.67564398 C-65.12431776 139.93380488 -65.12337465 138.19196577 -65.12244415 136.45012665 C-65.12198133 135.59324763 -65.1215185 134.73636861 -65.12104165 133.85352356 C-65.11845775 127.83218973 -65.12280972 121.81088407 -65.12988281 115.7895546 C-65.13831949 108.4464622 -65.13597218 101.10346595 -65.12004058 93.76038449 C-65.11218729 90.01808633 -65.10901569 86.27594813 -65.11898804 82.53365135 C-65.12965759 78.46806875 -65.11686898 74.40288574 -65.10194778 70.33731651 C-65.10863995 69.1671623 -65.11533211 67.99700808 -65.12222707 66.79139465 C-64.996856 49.12019783 -58.79739007 34.24051463 -46.41240311 21.75810814 C-45.52423904 20.8931472 -44.63607498 20.02818626 -43.72099686 19.13701439 C-43.02877029 18.44736595 -42.33654373 17.75771751 -41.62334061 17.04717064 C-30.76335944 6.85618215 -14.87980078 0.02924653 0 0 Z " fill="#7C7C7C" transform="translate(205.72099685668945,181.8629856109619)"/>
<path d="M0 0 C24.09 0 48.18 0 73 0 C78.40183139 15.0050872 83.77289256 30.00253938 88.97012329 45.07693481 C101.77653118 82.20212194 114.98243351 119.18472091 128.20410156 156.16357422 C134.05001655 172.51754944 139.86582604 188.88199925 145.66748047 205.25170898 C160.27351488 246.46204833 174.97900179 287.63394032 190.03588867 328.68212891 C190.4216507 329.73446213 190.80741272 330.78679535 191.2048645 331.87101746 C191.92292265 333.82926018 192.64176007 335.7872174 193.36154175 337.74482727 C193.8410881 339.0524427 193.8410881 339.0524427 194.33032227 340.38647461 C194.74399803 341.51236244 194.74399803 341.51236244 195.16603088 342.66099548 C196.15199061 345.42628285 197.07161803 348.21485409 198 351 C175.89 351 153.78 351 131 351 C126.79200994 339.57831269 122.59951684 328.16080624 118.5390625 316.6875 C118.0583107 315.33175401 117.5774633 313.97604192 117.0965271 312.62036133 C116.10613269 309.82788395 115.11646502 307.03515067 114.12744141 304.2421875 C112.86090421 300.66554763 111.59306887 297.08936964 110.3247776 293.51335144 C109.10413287 290.07154499 107.88405441 286.6295379 106.6640625 283.1875 C106.43372944 282.53776215 106.20339638 281.88802429 105.96608353 281.21859741 C105.31773524 279.38933151 104.66984298 277.55990399 104.02197266 275.73046875 C103.65447906 274.69301514 103.28698547 273.65556152 102.90835571 272.58666992 C102.25633654 270.72995414 101.62229595 268.86688785 101 267 C57.11 266.67 13.22 266.34 -32 266 C-32.33 267.98 -32.66 269.96 -33 272 C-33.45919184 273.58009162 -33.95905818 275.14895105 -34.49951172 276.703125 C-34.80428436 277.58685791 -35.10905701 278.47059082 -35.42306519 279.38110352 C-35.75525055 280.32783936 -36.08743591 281.2745752 -36.4296875 282.25 C-36.77951691 283.25796631 -37.12934631 284.26593262 -37.48977661 285.30444336 C-38.23568248 287.45034289 -38.98394299 289.59542518 -39.734375 291.73974609 C-40.84142913 294.90404422 -41.94094751 298.07087159 -43.0390625 301.23828125 C-48.84313784 317.89927057 -54.92434741 334.4300384 -61 351 C-82.12 351 -103.24 351 -125 351 C-121.62512655 339.75042185 -121.62512655 339.75042185 -120.00146484 335.28637695 C-119.6354567 334.27577713 -119.26944855 333.26517731 -118.89234924 332.22395325 C-118.50248337 331.15618149 -118.11261749 330.08840973 -117.7109375 328.98828125 C-117.29541122 327.84320602 -116.87988495 326.6981308 -116.45176697 325.51835632 C-115.32878105 322.42510287 -114.2034026 319.33273301 -113.07699966 316.24072266 C-111.88927082 312.97831986 -110.70487179 309.71470885 -109.52026367 306.45117188 C-107.83222742 301.80144408 -106.14337753 297.15201372 -104.45328045 292.50303459 C-100.39490983 281.33949418 -96.35165357 270.17050572 -92.3125 259 C-91.80052063 257.58447342 -91.80052063 257.58447342 -91.27819824 256.14035034 C-83.59780806 234.90490778 -75.94369216 213.66003069 -68.3046875 192.40966797 C-66.76416141 188.1244259 -65.22243386 183.83961901 -63.6796875 179.55517578 C-54.11893314 153.00120908 -44.66478551 126.41290915 -35.3430481 99.77404785 C-28.85758315 81.24361309 -22.27772535 62.75143783 -15.56494141 44.30224609 C-12.91362687 37.01542248 -10.27071942 29.72555733 -7.63180542 22.43423462 C-6.77195056 20.06059479 -5.90963293 17.68786024 -5.04711914 15.31518555 C-4.52609007 13.87683179 -4.00516941 12.43843874 -3.484375 11 C-3.24651779 10.34767899 -3.00866058 9.69535797 -2.76359558 9.02326965 C-1.67987955 6.02263003 -0.77559573 3.10238291 0 0 Z " fill="#FEFEFE" transform="translate(303,220)"/>
<path d="M0 0 C20.13 0 40.26 0 61 0 C61 116.82 61 233.64 61 354 C40.87 354 20.74 354 0 354 C0 237.18 0 120.36 0 0 Z " fill="#FEFEFE" transform="translate(535,217)"/>
<path d="M0 0 C10.12587501 9.95337288 15.10411891 23.67156179 15.38037109 37.73461914 C15.34312126 53.8790365 12.6202516 68.05448821 1.25 80.25 C-10.59944674 91.35885632 -23.76105037 93.73459891 -39.50390625 93.28125 C-52.53002199 92.63224278 -64.08464441 87.07224086 -72.99609375 77.5390625 C-83.84146422 63.79736503 -85.24428308 46.84966675 -84 30 C-82.48918593 19.34876084 -77.23746657 7.16377968 -69 0 C-47.93622911 -15.2871913 -20.88537064 -16.51180289 0 0 Z " fill="#2D2D2D" transform="translate(778,663)"/>
<path d="M0 0 C2.38887135 2.38887135 2.87787628 4.15694604 3.93261719 7.35961914 C4.30824295 8.48998596 4.68386871 9.62035278 5.07087708 10.78497314 C5.47545639 12.02253357 5.88003571 13.26009399 6.296875 14.53515625 C6.7259272 15.83268753 7.15556026 17.13002687 7.58573914 18.42718506 C8.50218534 21.19400029 9.41508199 23.96195068 10.32516479 26.73086548 C12.47181671 33.26119053 14.63642828 39.78557051 16.79920769 46.31056786 C17.52016407 48.48628475 18.24041385 50.66223465 18.96058655 52.83821106 C22.71847002 64.18639681 26.55108179 75.50766714 30.4375 86.8125 C35.31526139 101.02009192 40.12074825 115.25058278 44.875 129.5 C45.34291458 130.89999741 45.34291458 130.89999741 45.82028198 132.32827759 C46.69180311 134.93703259 47.56117194 137.54649306 48.4296875 140.15625 C48.8222599 141.33099129 48.8222599 141.33099129 49.22276306 142.52946472 C51 147.88463967 51 147.88463967 51 149 C17.67 149 -15.66 149 -50 149 C-42.87213472 127.61640415 -35.73488179 106.23989422 -28.48962402 84.89639282 C-26.12288937 77.92283256 -23.75999468 70.94797135 -21.3984375 63.97265625 C-21.16561569 63.28497602 -20.93279388 62.5972958 -20.69291687 61.88877678 C-14.78945166 44.44764467 -8.95942998 26.9821341 -3.16308594 9.50512695 C-2.11143969 6.33583954 -1.05677627 3.16757997 0 0 Z " fill="#7A7A7A" transform="translate(337,286)"/>
<path d="M0 0 C21 0 21 0 25.8046875 4.40625 C27.41650391 7.31323242 27.41650391 7.31323242 28.875 10.5 C30.06553163 12.71601454 31.25830477 14.93082607 32.453125 17.14453125 C33.03384766 18.28486816 33.61457031 19.42520508 34.21289062 20.60009766 C37.04590014 25.98978214 40.34121331 31.06477596 43.625 36.1875 C44.86221636 38.1596787 46.09661084 40.13363058 47.328125 42.109375 C47.93205078 43.07681641 48.53597656 44.04425781 49.15820312 45.04101562 C52.80814347 50.90491766 56.43531043 56.78303539 60.05322266 62.66674805 C60.55901855 63.48699463 61.06481445 64.30724121 61.5859375 65.15234375 C62.0298584 65.87413818 62.4737793 66.59593262 62.93115234 67.33959961 C63.89486163 68.96547066 63.89486163 68.96547066 65 70 C64.96970703 68.73220703 64.93941406 67.46441406 64.90820312 66.15820312 C63.85199177 21.60920115 63.85199177 21.60920115 64 0 C70.93 0 77.86 0 85 0 C85 33.33 85 66.66 85 101 C77.74 101 70.48 101 63 101 C56.16740431 92.28495448 56.16740431 92.28495448 54.421875 88.1875 C52.08345694 83.03296398 49.22147594 78.41495941 46.125 73.6875 C45.12204994 72.11124821 44.12209037 70.53308997 43.125 68.953125 C42.61839844 68.15197266 42.11179687 67.35082031 41.58984375 66.52539062 C38.74681727 62.00937927 35.93434215 57.47451894 33.125 52.9375 C32.60180176 52.09340576 32.07860352 51.24931152 31.53955078 50.37963867 C27.97522104 44.61501421 24.4877012 38.81283534 21 33 C21 55.44 21 77.88 21 101 C14.07 101 7.14 101 0 101 C0 67.67 0 34.34 0 0 Z " fill="#2C2C2C" transform="translate(812,653)"/>
<path d="M0 0 C21 0 21 0 26.12890625 5.01953125 C27.35327202 7.24170102 28.49558851 9.51058559 29.5625 11.8125 C30.19575396 13.01643423 30.83758053 14.21589519 31.48754883 15.41088867 C32.77996703 17.80410548 34.03293118 20.21169517 35.25683594 22.640625 C37.63208328 27.21813249 40.36469084 31.50232891 43.1875 35.8125 C44.13952225 37.30681134 45.08873452 38.80291655 46.03515625 40.30078125 C46.50969238 41.05053223 46.98422852 41.8002832 47.47314453 42.57275391 C50.95404657 48.1063529 54.38174112 53.67322316 57.81323242 59.23754883 C58.33119385 60.07697021 58.84915527 60.9163916 59.3828125 61.78125 C59.84059082 62.52439453 60.29836914 63.26753906 60.77001953 64.03320312 C61.81715944 65.7076293 62.90452609 67.35678914 64 69 C64 46.23 64 23.46 64 0 C70.6 0 77.2 0 84 0 C84 33.33 84 66.66 84 101 C77.07 101 70.14 101 63 101 C56.22903822 92.83296363 56.22903822 92.83296363 54.4453125 88.9453125 C52.07979529 84.05913079 49.27784311 79.60207991 46.3125 75.0625 C37.70763075 61.48455628 29.27030273 47.78383789 21 34 C21 56.11 21 78.22 21 101 C14.07 101 7.14 101 0 101 C0 67.67 0 34.34 0 0 Z " fill="#2D2D2D" transform="translate(176,653)"/>
<path d="M0 0 C5.65759294 5.11072543 9.66487408 10.37865618 11 18 C11 19.65 11 21.3 11 23 C3.74 23 -3.52 23 -11 23 C-11.99 20.36 -12.98 17.72 -14 15 C-18.61305685 10.38694315 -22.53692282 9.84676454 -28.875 9.75 C-33.65797272 9.8024321 -37.04872777 10.0618745 -41 13 C-43.41543818 15.89852582 -43.96448117 17.75136822 -44.5 21.5 C-43.85440715 26.01914996 -42.48953079 27.12928207 -39 30 C-35.65576003 31.21176119 -35.65576003 31.21176119 -31.93359375 31.80859375 C-31.25885513 31.94266129 -30.58411652 32.07672882 -29.88893127 32.21485901 C-27.74151317 32.64070915 -25.59068124 33.04189922 -23.4375 33.4375 C-10.54547545 35.81541145 1.84772872 38.31072086 10.6953125 48.875 C15.23417362 56.26763607 15.24057341 65.57713418 13.34765625 73.8515625 C10.24022962 82.46700285 5.20064754 88.12141466 -2.875 92.375 C-16.3773876 98.49430866 -32.11435599 99.31357759 -46.16796875 94.2578125 C-54.96972712 90.34861775 -62.6249926 84.30553836 -66.9375 75.5 C-68 72 -68 72 -68 64 C-60.74 64 -53.48 64 -46 64 C-45.01 66.97 -44.02 69.94 -43 73 C-37.38524312 78.73421979 -33.41407132 79.15671771 -25.625 79.25 C-24.33851563 79.27578125 -23.05203125 79.3015625 -21.7265625 79.328125 C-16.8459163 78.89838257 -13.60956065 77.63684134 -10.15625 74.125 C-8.78063036 71.59683418 -8.53500289 69.87023712 -8.5 67 C-8.4690625 66.154375 -8.438125 65.30875 -8.40625 64.4375 C-9.27963796 60.85201257 -10.90128633 59.91963037 -14 58 C-17.47034604 56.7998212 -17.47034604 56.7998212 -21.3125 56 C-22.00746582 55.83685303 -22.70243164 55.67370605 -23.41845703 55.50561523 C-25.60967575 54.99144012 -27.80412201 54.49386576 -30 54 C-55.84721857 48.16922522 -55.84721857 48.16922522 -64 36 C-66.95592399 28.8845999 -67.29866549 20.2311301 -65.0625 12.8125 C-61.17466811 4.27735278 -54.2892639 -1.7276537 -45.68359375 -5.10546875 C-30.88254686 -10.03915105 -12.89586236 -9.79988028 0 0 Z " fill="#2C2C2C" transform="translate(621,659)"/>
<path d="M0 0 C-1.42184148 8.43421831 -3.27761499 16.72780799 -5.2734375 25.04296875 C-5.59709113 26.39985517 -5.92054168 27.75679005 -6.24380493 29.11376953 C-7.10563353 32.72727458 -7.97157776 36.33978077 -8.83868408 39.95202255 C-9.37642468 42.19343836 -9.91299662 44.43513088 -10.44921875 46.6769104 C-16.78625457 73.1643842 -23.33561994 99.59239401 -30 126 C-54.09 126.33 -78.18 126.66 -103 127 C-101.4563514 123.91270281 -100.27793806 121.94002691 -98.12890625 119.3828125 C-97.27607056 118.35982056 -97.27607056 118.35982056 -96.40600586 117.31616211 C-95.49347046 116.23153687 -95.49347046 116.23153687 -94.5625 115.125 C-90.11394743 109.78389076 -85.70646619 104.42344014 -81.4375 98.9375 C-77.54831272 93.94121369 -73.57699502 89.02107244 -69.5625 84.125 C-64.69545677 78.17766854 -60.03096139 72.10911693 -55.45385742 65.93676758 C-51.53822428 60.67225142 -47.47820055 55.53956308 -43.35913086 50.43334961 C-40.18539285 46.49513078 -37.06841342 42.52074342 -34 38.5 C-29.90576642 33.13756066 -25.71081448 27.86234817 -21.47631836 22.61010742 C-19.0055043 19.53745398 -16.56538784 16.44905122 -14.19140625 13.30078125 C-13.74732422 12.71296875 -13.30324219 12.12515625 -12.84570312 11.51953125 C-11.64292745 9.91949177 -10.44812491 8.31346751 -9.25390625 6.70703125 C-3.66955267 0 -3.66955267 0 0 0 Z " fill="#FEFEFE" transform="translate(819,315)"/>
<path d="M0 0 C6.93 0 13.86 0 21 0 C21.0093457 2.10890625 21.01869141 4.2178125 21.02832031 6.390625 C21.06217619 13.37967709 21.11777267 20.36843658 21.18390274 27.35725403 C21.22331362 31.5921884 21.25553319 35.82691683 21.27099609 40.06201172 C21.28620513 44.15363413 21.32072493 48.24469013 21.36830902 52.33605957 C21.38307928 53.89240581 21.39103851 55.44883293 21.39188385 57.00524902 C21.34761017 68.60194846 21.34761017 68.60194846 26 79 C30.88894074 83.65045583 34.69061826 84.18805316 41.3125 84.3125 C42.60800781 84.34988281 43.90351563 84.38726563 45.23828125 84.42578125 C50.28526514 83.85452347 53.26566629 81.7962742 56.75 78.1875 C59.68535479 73.05062911 60.25478259 67.69058164 60.31884766 61.87133789 C60.33391609 60.86031006 60.33391609 60.86031006 60.34928894 59.82885742 C60.37989249 57.62679813 60.39709154 55.42485908 60.4140625 53.22265625 C60.4327926 51.6856535 60.45236737 50.14866083 60.4727478 48.61167908 C60.52388063 44.58570321 60.56360663 40.55969408 60.60089111 36.53356934 C60.64104958 32.41747943 60.69208764 28.30152566 60.7421875 24.18554688 C60.8387234 16.12378446 60.92219219 8.06196494 61 0 C67.93 0 74.86 0 82 0 C82.06815137 8.7719546 82.12303061 17.54372938 82.15543652 26.31589031 C82.17100053 30.3904636 82.19206621 34.4648442 82.22631836 38.53930664 C82.25924653 42.4815691 82.27692239 46.42364785 82.28463173 50.36603737 C82.29011592 51.8597178 82.30082244 53.35338977 82.31719017 54.84699059 C82.46625459 69.03158257 81.53115291 82.06832348 71.3359375 92.7421875 C61.1111433 102.12658766 49.11431309 103.59908921 35.77734375 103.30859375 C25.35928325 102.81131655 16.33450691 99.5563166 9 92 C1.94118362 83.13084062 -0.13368445 74.99697868 -0.11352539 63.68774414 C-0.11367142 62.99421844 -0.11381744 62.30069275 -0.1139679 61.58615112 C-0.1132774 59.31911977 -0.10552592 57.05217305 -0.09765625 54.78515625 C-0.095789 53.20332382 -0.09436655 51.62149081 -0.09336853 50.03965759 C-0.08956755 45.89523699 -0.07975814 41.75085195 -0.06866455 37.60644531 C-0.0583982 33.36979656 -0.05385976 29.13314201 -0.04882812 24.89648438 C-0.03813351 16.59763818 -0.02055653 8.29882763 0 0 Z " fill="#2E2E2E" transform="translate(456,653)"/>
<path d="M0 0 C6.95856151 6.46458956 11.08158154 14.8454077 12.9375 24.125 C5.6775 24.125 -1.5825 24.125 -9.0625 24.125 C-10.7125 21.155 -12.3625 18.185 -14.0625 15.125 C-19.9941469 9.43061898 -24.25021131 8.79235821 -32.2902832 8.7355957 C-39.62020286 8.88691965 -43.25305885 11.39359888 -48.3125 16.3125 C-55.67298477 28.14185052 -56.92734592 42.10433421 -53.8125 55.5625 C-51.6119796 63.25920391 -48.63649393 68.42929005 -42.0625 73.125 C-36.24950693 75.93263611 -30.38877787 75.87376236 -24.0625 75.125 C-18.8668078 73.14802278 -15.06412381 69.7941926 -12.0625 65.125 C-11.0725 62.815 -10.0825 60.505 -9.0625 58.125 C-1.8025 58.125 5.4575 58.125 12.9375 58.125 C9.48906943 71.09109896 4.41597387 81.54668505 -7.4453125 88.52734375 C-19.72454742 95.0049218 -33.52022912 96.24782344 -46.9375 92.625 C-59.10062046 88.31691103 -67.77398679 80.18563518 -73.3125 68.75 C-77.14625597 60.44352873 -78.43720838 52.52259002 -78.375 43.4375 C-78.36936035 42.56681885 -78.3637207 41.6961377 -78.35791016 40.79907227 C-78.09308538 26.56539597 -74.70663802 13.46683261 -64.80859375 2.74609375 C-46.67155614 -14.09254296 -19.36508534 -15.67788019 0 0 Z " fill="#2D2D2D" transform="translate(353.0625,661.875)"/>
<path d="M0 0 C6.9126703 4.95554404 11.01574348 12.085782 12.7421875 20.375 C14.42043659 33.33747631 13.79141311 46.76561946 5.90234375 57.6328125 C1.60418186 62.32433295 -3.77104975 65.32034361 -10.140625 65.78125 C-19.03314628 65.9507163 -25.25785835 65.79061808 -31.99609375 59.5546875 C-41.01185652 50.13207623 -42.18293228 40.0621516 -42.05859375 27.3671875 C-41.48330361 16.9373903 -37.92571136 8.49081732 -30.41015625 1.16796875 C-20.772585 -4.9436618 -10.13936439 -5.86669868 0 0 Z " fill="#FEFEFE" transform="translate(757.84765625,672.45703125)"/>
<path d="M0 0 C6.93 0 13.86 0 21 0 C21 27.39 21 54.78 21 83 C35.19 83 49.38 83 64 83 C64 88.94 64 94.88 64 101 C42.88 101 21.76 101 0 101 C0 67.67 0 34.34 0 0 Z " fill="#323232" transform="translate(381,653)"/>
<path d="M0 0 C6.93 0 13.86 0 21 0 C21 33.33 21 66.66 21 101 C14.07 101 7.14 101 0 101 C0 67.67 0 34.34 0 0 Z " fill="#323232" transform="translate(654,653)"/>
<path d="M0 0 C6.93 0 13.86 0 21 0 C21 33.33 21 66.66 21 101 C14.07 101 7.14 101 0 101 C0 67.67 0 34.34 0 0 Z " fill="#2D2D2D" transform="translate(135,653)"/>
<path d="M0 0 C6.93 0 13.86 0 21 0 C21 27.39 21 54.78 21 83 C35.19 83 49.38 83 64 83 C64 88.94 64 94.88 64 101 C42.88 101 21.76 101 0 101 C0 67.67 0 34.34 0 0 Z M1 2 C1 34.34 1 66.68 1 100 C21.13 100 41.26 100 62 100 C62 94.72 62 89.44 62 84 C47.81 84 33.62 84 19 84 C19 56.94 19 29.88 19 2 C13.06 2 7.12 2 1 2 Z " fill="#0A0B0A" transform="translate(381,653)"/>
<path d="M0 0 C6.93 0 13.86 0 21 0 C21 33.33 21 66.66 21 101 C14.07 101 7.14 101 0 101 C0 67.67 0 34.34 0 0 Z M1 2 C1 34.34 1 66.68 1 100 C6.94 100 12.88 100 19 100 C19 67.66 19 35.32 19 2 C13.06 2 7.12 2 1 2 Z " fill="#070707" transform="translate(654,653)"/>
<path d="M0 0 C6.93 0 13.86 0 21 0 C21.04535029 8.8237716 21.08197306 17.64746462 21.10362434 26.47132683 C21.11402067 30.56947059 21.12810316 34.66752985 21.15087891 38.765625 C21.17275646 42.72731471 21.18459977 46.6889236 21.18975449 50.6506691 C21.19342366 52.15518591 21.20058794 53.65969876 21.21146011 55.16418076 C21.33227862 72.59058315 21.33227862 72.59058315 19 79 C18.01 79.495 18.01 79.495 17 80 C17.16076523 79.16036713 17.32153046 78.32073425 17.48716736 77.45565796 C18.02513571 73.83062622 18.1603256 70.37348704 18.20532227 66.70947266 C18.22017166 65.6547728 18.22017166 65.6547728 18.23532104 64.57876587 C18.26669873 62.27389802 18.29159869 59.96900962 18.31640625 57.6640625 C18.33699632 56.05837494 18.35799331 54.45269254 18.37937927 52.84701538 C18.434388 48.63523565 18.48389013 44.42340873 18.53222656 40.21154785 C18.58259706 35.90791662 18.63820171 31.60435332 18.69335938 27.30078125 C18.8006814 18.86724356 18.90169911 10.43364767 19 2 C13.06 2 7.12 2 1 2 C1.01047363 4.07974121 1.02094727 6.15948242 1.03173828 8.30224609 C1.06483502 15.16341811 1.08695244 22.02459359 1.10362434 28.8858242 C1.11407446 33.04697253 1.12825592 37.20803926 1.15087891 41.36914062 C1.17256371 45.38266429 1.18455937 49.39610933 1.18975449 53.40968704 C1.19345811 54.94314436 1.20069011 56.47659724 1.21146011 58.01002121 C1.22591729 60.15309801 1.2279804 62.29584736 1.22705078 64.43896484 C1.231492 65.66030121 1.23593323 66.88163757 1.24050903 68.13998413 C1 71 1 71 -1 73 C-0.67 48.91 -0.34 24.82 0 0 Z " fill="#0A0A0A" transform="translate(517,653)"/>
<path d="M0 0 C0.33 0 0.66 0 1 0 C1 1.65 1 3.3 1 5 C23.11 5 45.22 5 68 5 C68.33 4.34 68.66 3.68 69 3 C69 4.32 69 5.64 69 7 C45.9 7 22.8 7 -1 7 C-0.67 4.69 -0.34 2.38 0 0 Z " fill="#595959" transform="translate(758,565)"/>
<path d="M0 0 C6.93 0 13.86 0 21 0 C20.67 0.99 20.34 1.98 20 3 C14.39 3 8.78 3 3 3 C3 13.23 3 23.46 3 34 C2.67 34 2.34 34 2 34 C1.67 30.7 1.34 27.4 1 24 C0.67 24 0.34 24 0 24 C0 16.08 0 8.16 0 0 Z " fill="#383838" transform="translate(876,653)"/>
<path d="M0 0 C6.98734375 6.42080237 7.92379483 10.31415348 9 20 C1.74 20 -5.52 20 -13 20 C-13.99 17.36 -14.98 14.72 -16 12 C-18.51976829 9.05958272 -18.51976829 9.05958272 -21 7 C-17.18950597 7.54435629 -15.36020622 8.98870241 -13 12 C-12.67 13.98 -12.34 15.96 -12 18 C-5.73 18 0.54 18 7 18 C5.32605182 11.80639175 3.74661225 7.16774104 0 2 C0 1.34 0 0.68 0 0 Z " fill="#090909" transform="translate(623,662)"/>
<path d="M0 0 C7.87919607 3.46546698 11.74506609 10.81404195 15.0546875 18.38671875 C16 21 16 21 17 26 C9.74 26 2.48 26 -5 26 C-5.99 24.02 -6.98 22.04 -8 20 C-7.67 19.34 -7.34 18.68 -7 18 C-6.69449219 18.81855469 -6.38898438 19.63710938 -6.07421875 20.48046875 C-4.32236936 23.14116014 -4.32236936 23.14116014 -2.06494141 23.41259766 C0.36850023 23.49283238 2.75584226 23.43474111 5.1875 23.3125 C6.03248047 23.28994141 6.87746094 23.26738281 7.74804688 23.24414062 C9.83278798 23.18524963 11.91661804 23.09556798 14 23 C11.21540177 14.85609964 7.82348973 9.03153028 1.79296875 2.86328125 C0 1 0 1 0 0 Z " fill="#0B0B0B" transform="translate(349,660)"/>
<path d="M0 0 C0.99 0 1.98 0 3 0 C3.11531128 15.70362179 3.00090639 31.32509099 2 47 C1.67 47 1.34 47 1 47 C-0.07483628 41.77086572 -0.12930634 36.75493201 -0.09765625 31.4453125 C-0.0962413 30.54376434 -0.09482635 29.64221619 -0.09336853 28.71334839 C-0.0877974 25.850531 -0.07525026 22.98779352 -0.0625 20.125 C-0.05748127 18.17708447 -0.05291901 16.2291677 -0.04882812 14.28125 C-0.03783742 9.52080282 -0.02059277 4.76041493 0 0 Z " fill="#3E3E3E" transform="translate(830,688)"/>
<path d="M0 0 C0.99 1.98 0.99 1.98 2 4 C-0.93088353 5.46544176 -3.47335201 5.07374529 -6.74462891 5.02172852 C-7.43742447 5.01212097 -8.13022003 5.00251343 -8.8440094 4.99261475 C-11.13829582 4.95958347 -13.43239426 4.91926704 -15.7265625 4.87890625 C-17.3155348 4.85460916 -18.9045141 4.83076539 -20.49349976 4.80735779 C-24.67915806 4.74447593 -28.86469284 4.67542095 -33.05023193 4.60510254 C-37.31988898 4.53445609 -41.58963373 4.46961706 -45.859375 4.40429688 C-54.23968042 4.27523169 -62.61986429 4.13964827 -71 4 C-71 3.67 -71 3.34 -71 3 C-47.57 3 -24.14 3 0 3 C0 2.01 0 1.02 0 0 Z " fill="#373737" transform="translate(789,438)"/>
<path d="M0 0 C1.25039063 0.00966797 2.50078125 0.01933594 3.7890625 0.02929688 C5.74199219 0.06700195 5.74199219 0.06700195 7.734375 0.10546875 C9.05179688 0.11900391 10.36921875 0.13253906 11.7265625 0.14648438 C14.97957821 0.18184324 18.231771 0.23119842 21.484375 0.29296875 C20.824375 2.27296875 20.164375 4.25296875 19.484375 6.29296875 C19.154375 5.30296875 18.824375 4.31296875 18.484375 3.29296875 C8.914375 3.29296875 -0.655625 3.29296875 -10.515625 3.29296875 C-6.13118151 0.00463613 -5.21541815 -0.07111934 0 0 Z " fill="#898989" transform="translate(880.515625,440.70703125)"/>
<path d="M0 0 C0.33 0 0.66 0 1 0 C0.7601071 6.47710842 -1.09203782 10.39093291 -4.625 15.80078125 C-6.14270625 18.03679256 -6.14270625 18.03679256 -7 21 C-10.5625 22.1875 -10.5625 22.1875 -14 23 C-14 22.34 -14 21.68 -14 21 C-12.948125 20.34 -11.89625 19.68 -10.8125 19 C-4.53354403 14.71658267 -2.04541084 7.06596471 0 0 Z " fill="#101011" transform="translate(770,714)"/>
<path d="M0 0 C2.32509781 2.13802098 3.82167236 4.18598137 5.25 7 C5.60578125 7.680625 5.9615625 8.36125 6.328125 9.0625 C7 11 7 11 6 14 C6 13.34 6 12.68 6 12 C5.34 12 4.68 12 4 12 C3.32332002 10.75539217 2.65905281 9.50403104 2 8.25 C1.62875 7.55390625 1.2575 6.8578125 0.875 6.140625 C0 4 0 4 0 0 Z " fill="#59595A" transform="translate(640,213)"/>
<path d="M0 0 C0.33 0.66 0.66 1.32 1 2 C-0.98 4.31 -2.96 6.62 -5 9 C-5.33 7.68 -5.66 6.36 -6 5 C-4.02 3.35 -2.04 1.7 0 0 Z " fill="#6D6D6E" transform="translate(800,262)"/>
<path d="M0 0 C1.32 0.33 2.64 0.66 4 1 C2.35 2.65 0.7 4.3 -1 6 C-1.99 5.67 -2.98 5.34 -4 5 C-2.68 3.35 -1.36 1.7 0 0 Z " fill="#696969" transform="translate(767,300)"/>
<path d="M0 0 C1.3921875 0.0928125 1.3921875 0.0928125 2.8125 0.1875 C2.8125 1.1775 2.8125 2.1675 2.8125 3.1875 C-0.1575 3.1875 -3.1275 3.1875 -6.1875 3.1875 C-3.1875 0.1875 -3.1875 0.1875 0 0 Z " fill="#3E3D3E" transform="translate(597.1875,738.8125)"/>
<path d="M0 0 C-1.90401138 1.90401138 -3.33425686 2.93520439 -6.046875 3.19921875 C-8.03233273 3.1886578 -10.0169914 3.09915043 -12 3 C-8.48214012 -0.51785988 -4.80656342 -0.10924008 0 0 Z " fill="#434344" transform="translate(200,183)"/>
</svg>
